<svg width="24" height="10" viewBox="0 0 24 10" fill="none" xmlns="http://www.w3.org/2000/svg">
<path d="M3.96967 1.18293C4.26256 0.890034 4.73744 0.890034 5.03033 1.18293C5.32322 1.47582 5.32322 1.95069 5.03033 2.24359L2.56066 4.71326H23.25C23.6642 4.71326 24 5.04904 24 5.46326C24 5.87747 23.6642 6.21326 23.25 6.21326H2.56066L5.03033 8.68293C5.32322 8.97582 5.32322 9.45069 5.03033 9.74359C4.73744 10.0365 4.26256 10.0365 3.96967 9.74359L0.219669 5.99359C0.0732231 5.84714 0 5.6552 0 5.46326C0 5.36156 0.0202389 5.2646 0.0569096 5.17617C0.0935097 5.08771 0.147762 5.00483 0.219669 4.93293L3.96967 1.18293Z" fill="white"/>
</svg>
