<svg width="24" height="10" viewBox="0 0 24 10" fill="none" xmlns="http://www.w3.org/2000/svg">
<path d="M20.0303 1.18293C19.7374 0.890034 19.2626 0.890034 18.9697 1.18293C18.6768 1.47582 18.6768 1.95069 18.9697 2.24359L21.4393 4.71326H0.75C0.335786 4.71326 0 5.04904 0 5.46326C0 5.87747 0.335786 6.21326 0.75 6.21326H21.4393L18.9697 8.68293C18.6768 8.97582 18.6768 9.45069 18.9697 9.74359C19.2626 10.0365 19.7374 10.0365 20.0303 9.74359L23.7803 5.99359C23.9268 5.84714 24 5.6552 24 5.46326C24 5.36156 23.9798 5.2646 23.9431 5.17617C23.9065 5.08771 23.8522 5.00483 23.7803 4.93293L20.0303 1.18293Z" fill="white"/>
</svg>
