<svg width="24" height="16" viewBox="0 0 24 16" fill="none" xmlns="http://www.w3.org/2000/svg">
<path fill-rule="evenodd" clip-rule="evenodd" d="M0.819546 0.146447C1.0236 -0.0488155 1.35444 -0.0488155 1.5585 0.146447L9.02676 7.29286C9.12389 7.38567 9.20095 7.4959 9.25353 7.61724C9.30611 7.73858 9.33317 7.86865 9.33317 8C9.33317 8.13135 9.30611 8.26142 9.25353 8.38276C9.20095 8.5041 9.12389 8.61433 9.02676 8.70714L1.5585 15.8536C1.35444 16.0488 1.0236 16.0488 0.819546 15.8536C0.61549 15.6583 0.61549 15.3417 0.819546 15.1464L8.28784 8L0.819546 0.853553C0.61549 0.658291 0.61549 0.341709 0.819546 0.146447Z" fill="#B11515"/>
</svg>
