<svg width="24" height="10" viewBox="0 0 24 10" fill="none" xmlns="http://www.w3.org/2000/svg">
<path fill-rule="evenodd" clip-rule="evenodd" d="M15.8533 0.81979C16.0486 1.02385 16.0486 1.35469 15.8533 1.55874L8.70689 9.02701C8.61408 9.12414 8.50386 9.2012 8.38251 9.25378C8.26117 9.30635 8.13111 9.33341 7.99976 9.33341C7.8684 9.33341 7.73834 9.30635 7.617 9.25378C7.49566 9.2012 7.38543 9.12414 7.29262 9.02701L0.146202 1.55874C-0.04906 1.35469 -0.04906 1.02385 0.146202 0.81979C0.341465 0.615734 0.658046 0.615734 0.853309 0.81979L7.99976 8.28809L15.1462 0.81979C15.3415 0.615734 15.658 0.615734 15.8533 0.81979Z" fill="#B11515"/>
</svg>

